<?xml version="1.0" standalone="no"?>
<!DOCTYPE svg PUBLIC "-//W3C//DTD SVG 20010904//EN"
 "http://www.w3.org/TR/2001/REC-SVG-20010904/DTD/svg10.dtd">
<svg version="1.0" xmlns="http://www.w3.org/2000/svg"
 width="700.000000pt" height="700.000000pt" viewBox="0 0 700.000000 700.000000"
 preserveAspectRatio="xMidYMid meet">
<metadata>
Created by potrace 1.14, written by Peter Selinger 2001-2017
</metadata>
<g transform="translate(0.000000,700.000000) scale(0.100000,-0.100000)"
fill="#000000" stroke="none">
<path d="M0 3500 l0 -3500 3500 0 3500 0 0 3500 0 3500 -3500 0 -3500 0 0
-3500z m2100 1543 l1 -198 194 198 195 197 228 -2 227 -3 -582 -579 -583 -579
0 582 0 581 160 0 160 0 0 -197z m1592 110 l88 -88 -747 -747 -748 -748 155
-156 c85 -85 261 -259 391 -385 l237 -229 283 287 c156 159 366 371 466 473
l183 185 145 -145 c80 -80 145 -148 145 -153 0 -4 -284 -296 -632 -648 l-632
-640 -623 623 -623 623 0 120 0 120 797 797 798 798 115 0 115 0 87 -87z
m1568 -73 l0 -160 -197 0 -196 0 196 -191 197 -191 0 -231 0 -232 -116 115
c-63 63 -323 325 -576 583 l-460 467 576 0 576 0 0 -160z m10 -1625 l0 -120
-792 -792 -793 -793 -125 0 -125 0 -83 83 -83 84 748 746 748 746 -387 388
-388 388 -470 -470 -470 -470 -145 145 c-80 80 -145 149 -145 154 0 5 285 294
632 643 l633 634 622 -623 623 -623 0 -120z m-2648 -1377 l310 -318 -576 0
-576 0 0 160 0 160 198 0 197 0 -197 191 -198 191 0 231 0 232 266 -265 c146
-146 405 -408 576 -582z m2648 257 l0 -575 -165 0 -165 0 -1 193 0 192 -188
-192 -187 -193 -230 0 -229 0 575 575 c316 316 578 575 582 575 5 0 8 -259 8
-575z"/>
</g>
</svg>
