<svg width="692" height="780" viewBox="0 0 692 780" fill="none" xmlns="http://www.w3.org/2000/svg">
<path fill-rule="evenodd" clip-rule="evenodd" d="M546.013 44.5955H406.763V186.573H546.013V44.5955ZM397.663 35.4944V195.674H555.113V35.4944H397.663Z" fill="url(#paint0_linear_58_68)" fill-opacity="0.4"/>
<path fill-rule="evenodd" clip-rule="evenodd" d="M682.533 331.281H493.223V523.315H682.533V331.281ZM484.123 322.18V532.416H691.633V322.18H484.123Z" fill="url(#paint1_linear_58_68)" fill-opacity="0.3"/>
<path fill-rule="evenodd" clip-rule="evenodd" d="M572.423 500.663H414.983V659.933H572.423V500.663ZM405.873 491.562V669.034H581.533V491.562H405.873Z" fill="#222222"/>
<path fill-rule="evenodd" clip-rule="evenodd" d="M391.293 378.607H180.143V588.843H391.293V378.607ZM161.033 359.494V607.955H410.403V359.494H161.033Z" fill="url(#paint2_linear_58_68)" fill-opacity="0.3"/>
<path fill-rule="evenodd" clip-rule="evenodd" d="M475.023 182.933H362.173V298.517H475.023V182.933ZM353.063 173.832V307.618H484.123V173.832H353.063Z" fill="#222222"/>
<path fill-rule="evenodd" clip-rule="evenodd" d="M323.943 169.281H81.8547V414.101H323.943V169.281ZM62.7417 150.168V433.213H343.053V150.168H62.7417Z" fill="url(#paint3_linear_58_68)" fill-opacity="0.4"/>
<path fill-rule="evenodd" clip-rule="evenodd" d="M574.223 293.966H356.713V514.214H574.223V293.966ZM343.053 280.315V527.865H587.873V280.315H343.053Z" fill="#222222" fill-opacity="0.5"/>
<path fill-rule="evenodd" clip-rule="evenodd" d="M430.423 487.82H257.503V660.742H430.423V487.82ZM248.403 478.719V669.843H439.533V478.719H248.403Z" fill="#222222" fill-opacity="0.4"/>
<g filter="url(#filter0_d_58_68)">
<path fill-rule="evenodd" clip-rule="evenodd" d="M644.303 39.1348H554.203V130.146H644.303V39.1348ZM545.103 30.0337V139.247H653.403V30.0337H545.103Z" fill="#222222"/>
</g>
<path fill-rule="evenodd" clip-rule="evenodd" d="M456.823 11.8315H285.723V183.843H456.823V11.8315ZM273.883 0V195.674H468.653V0H273.883Z" fill="#222222" fill-opacity="0.4"/>
<g filter="url(#filter1_d_58_68)">
<path fill-rule="evenodd" clip-rule="evenodd" d="M353.073 165.64H224.743V287.595H353.073V165.64ZM215.643 156.539V296.697H362.173V156.539H215.643Z" fill="#222222" fill-opacity="0.4"/>
</g>
<path fill-rule="evenodd" clip-rule="evenodd" d="M333.953 74.6292H162.853V247.551H333.953V74.6292ZM153.753 65.5281V256.652H343.053V65.5281H153.753Z" fill="#222222" fill-opacity="0.4"/>
<path fill-rule="evenodd" clip-rule="evenodd" d="M344.933 462.371H19.112V760.888H344.933V462.371ZM0 443.258V780H364.043V443.258H0Z" fill="url(#paint4_linear_58_68)" fill-opacity="0.6"/>
<path fill-rule="evenodd" clip-rule="evenodd" d="M599.713 174.742H505.053V271.213H599.713V174.742ZM495.953 165.64V280.315H608.813V165.64H495.953Z" fill="#222222" fill-opacity="0.4"/>
<defs>
<filter id="filter0_d_58_68" x="511.103" y="0.0336914" width="176.3" height="177.213" filterUnits="userSpaceOnUse" color-interpolation-filters="sRGB">
<feFlood flood-opacity="0" result="BackgroundImageFix"/>
<feColorMatrix in="SourceAlpha" type="matrix" values="0 0 0 0 0 0 0 0 0 0 0 0 0 0 0 0 0 0 127 0" result="hardAlpha"/>
<feOffset dy="4"/>
<feGaussianBlur stdDeviation="17"/>
<feComposite in2="hardAlpha" operator="out"/>
<feColorMatrix type="matrix" values="0 0 0 0 0 0 0 0 0 0 0 0 0 0 0 0 0 0 0.25 0"/>
<feBlend mode="normal" in2="BackgroundImageFix" result="effect1_dropShadow_58_68"/>
<feBlend mode="normal" in="SourceGraphic" in2="effect1_dropShadow_58_68" result="shape"/>
</filter>
<filter id="filter1_d_58_68" x="141.643" y="116.539" width="254.53" height="248.158" filterUnits="userSpaceOnUse" color-interpolation-filters="sRGB">
<feFlood flood-opacity="0" result="BackgroundImageFix"/>
<feColorMatrix in="SourceAlpha" type="matrix" values="0 0 0 0 0 0 0 0 0 0 0 0 0 0 0 0 0 0 127 0" result="hardAlpha"/>
<feOffset dx="-20" dy="14"/>
<feGaussianBlur stdDeviation="27"/>
<feComposite in2="hardAlpha" operator="out"/>
<feColorMatrix type="matrix" values="0 0 0 0 0 0 0 0 0 0 0 0 0 0 0 0 0 0 0.25 0"/>
<feBlend mode="normal" in2="BackgroundImageFix" result="effect1_dropShadow_58_68"/>
<feBlend mode="normal" in="SourceGraphic" in2="effect1_dropShadow_58_68" result="shape"/>
</filter>
<linearGradient id="paint0_linear_58_68" x1="397.663" y1="35.4944" x2="556.343" y2="199.12" gradientUnits="userSpaceOnUse">
<stop stop-color="#222222"/>
<stop offset="1" stop-color="white"/>
</linearGradient>
<linearGradient id="paint1_linear_58_68" x1="587.873" y1="322.18" x2="587.873" y2="532.416" gradientUnits="userSpaceOnUse">
<stop stop-color="#222222"/>
<stop offset="1" stop-color="white"/>
</linearGradient>
<linearGradient id="paint2_linear_58_68" x1="285.723" y1="359.494" x2="285.723" y2="607.955" gradientUnits="userSpaceOnUse">
<stop stop-color="#222222"/>
<stop offset="1" stop-color="white"/>
</linearGradient>
<linearGradient id="paint3_linear_58_68" x1="62.7417" y1="150.168" x2="343.053" y2="441.404" gradientUnits="userSpaceOnUse">
<stop stop-color="#222222"/>
<stop offset="1" stop-color="white"/>
</linearGradient>
<linearGradient id="paint4_linear_58_68" x1="364.043" y1="703.402" x2="-23.364" y2="563.822" gradientUnits="userSpaceOnUse">
<stop stop-color="#222222"/>
<stop offset="1" stop-color="white"/>
</linearGradient>
</defs>
</svg>
