<svg width="695" height="157" viewBox="0 0 695 157" fill="none" xmlns="http://www.w3.org/2000/svg">
<path d="M142.656 156.838V109.288L94.7825 156.823L113.755 156.803L129.472 140.621L129.482 156.838H142.656Z" fill="#FFFDEE"/>
<path d="M142.494 14.0103H94.944L142.479 61.8791L142.459 42.9115L126.277 27.1895L142.494 27.1794V14.0103Z" fill="#FFFDEE"/>
<path d="M0.0102539 14.1722V61.7175L47.8841 14.1874L28.9115 14.2026L13.1945 30.3846L13.1844 14.1722H0.0102539Z" fill="#FFFDEE"/>
<path d="M0 156.828H47.5503L0.015166 108.954L0.0353872 127.927L16.2175 143.644L0 143.654V156.828Z" fill="#FFFDEE"/>
<path d="M52.6358 114.242L20.6104 82.5046L81.8859 21.3959L74.5051 14.0202L65.3247 14L0.00488281 79.3602V89.2484L51.0029 140.252L102.997 87.57L90.7883 75.3615L52.6358 114.242Z" fill="#FFFDEE"/>
<path d="M91.7892 31.3551L39.856 83.6018L51.9483 95.6941L90.3788 57.3192L122.308 89.0262L60.8962 150.135L67.6804 156.924L77.8467 157L142.651 92.1959V82.2167L91.7892 31.3551Z" fill="#FFFDEE"/>
<path d="M226.9 92C234.7 92 240.8 90.5 245.2 87.4C249.6 84.3 251.9 79.9 251.9 74.1C251.9 65.5 245.9 60.4 233.9 58.6L224.5 57.1C220.5 56.5 218.6 54.9 218.6 52.2C218.6 50.8 219.2 49.6 220.5 48.7C221.8 47.9 223.6 47.4 225.8 47.4C230.9 47.4 233.8 49.5 234.6 53.6L250.1 53.2C249.3 48 246.9 44 242.8 41.1C238.6 38.3 233.1 36.8 226.2 36.8C219 36.8 213.3 38.4 209.2 41.4C205 44.4 203 48.6 203 54C203 62.6 208.8 67.7 220.6 69.3L229.6 70.6C233.8 71.3 235.9 72.9 235.9 75.5C235.9 77.3 235.1 78.6 233.6 79.6C232.1 80.6 230.1 81 227.5 81C221.7 81 218.5 78.7 217.9 73.9L201.8 74.2C202.5 79.9 205 84.3 209.3 87.4C213.5 90.5 219.4 92 226.9 92ZM278.122 31.8V18.8H260.922V31.8H278.122ZM278.122 90V38.4H260.922V90H278.122ZM339.945 90C338.245 87.2 337.445 83.2 337.445 78.1V55.8C337.445 43.2 329.345 36.9 313.345 36.9C305.545 36.9 299.645 38.3 295.845 41.1C291.945 43.9 289.745 48.3 289.145 54.2L305.245 54.7C305.445 52.5 306.245 51 307.445 50C308.645 49 310.445 48.5 312.945 48.5C317.945 48.5 320.545 50.2 320.545 53.6V57.3L302.545 60.5C291.845 62.4 286.545 67.6 286.545 76C286.545 80.8 288.145 84.7 291.545 87.5C294.845 90.4 299.345 91.8 304.945 91.8C312.145 91.8 317.645 89.4 321.245 84.4C321.445 86 321.945 87.9 322.745 90H339.945ZM310.445 80.2C305.745 80.2 303.445 78.4 303.445 74.8C303.445 72 305.545 70.1 309.945 69.1L320.945 66.9V70C320.945 73.3 319.945 75.8 318.045 77.6C316.045 79.4 313.545 80.2 310.445 80.2ZM378.705 36.6C372.705 36.6 368.305 39.7 365.605 45.8L365.405 38.4H349.105V90H366.305V66C366.305 56.8 370.805 52.2 379.805 52.2C381.005 52.2 382.305 52.3 383.605 52.5V37.3C382.005 36.9 380.305 36.6 378.705 36.6ZM441.293 54.4C441.293 30.2 433.393 18 417.793 18C402.093 18 394.293 30.2 394.293 54.4C394.293 78.7 402.093 90.8 417.793 90.8C433.393 90.8 441.293 78.7 441.293 54.4ZM403.193 79.2C399.993 73.9 398.393 65.6 398.393 54.4C398.393 43.2 399.993 35 403.193 29.6C406.293 24.3 411.193 21.6 417.793 21.6C424.393 21.6 429.293 24.3 432.493 29.6C435.593 35 437.193 43.2 437.193 54.4C437.193 65.6 435.593 73.9 432.493 79.2C429.293 84.6 424.393 87.2 417.793 87.2C411.193 87.2 406.293 84.6 403.193 79.2ZM479.658 62.7L498.858 38.4H493.958L477.458 60L460.858 38.4H455.958L475.358 62.7L453.558 90H458.458L477.458 65.4L496.358 90H501.358L479.658 62.7ZM218.65 125.85H231.8V128.25C231.35 132.2 229.9 135.3 227.5 137.5C225.05 139.75 221.95 140.85 218.15 140.85C213.7 140.85 210.2 139.35 207.65 136.25C205.1 133.25 203.85 129.2 203.85 124.15C203.85 119 205.1 114.95 207.65 112C210.2 109.05 213.75 107.55 218.3 107.55C222 107.55 225 108.45 227.3 110.15C229.55 111.9 230.95 114.2 231.5 117L233.45 116.85C232.8 113.4 231.15 110.7 228.45 108.7C225.75 106.75 222.3 105.75 218.2 105.75C213.05 105.75 209.05 107.4 206.15 110.7C203.25 114 201.8 118.5 201.8 124.1C201.8 129.7 203.25 134.2 206.2 137.55C209.1 140.95 213.1 142.65 218.1 142.65C221.4 142.65 224.2 141.9 226.6 140.4C229 138.9 230.75 136.75 231.85 133.95L232.2 142H233.8V124.05H218.65V125.85ZM254.319 115.55C252.069 115.55 250.169 116.15 248.619 117.25C247.069 118.4 245.969 120 245.269 122.1V116.2H243.369V142H245.369V127.55C245.369 124.35 246.219 121.9 247.819 120.15C249.419 118.4 251.469 117.5 254.069 117.5C254.719 117.5 255.469 117.55 256.369 117.65V115.7C255.669 115.6 254.969 115.55 254.319 115.55ZM272.173 142.6C275.673 142.6 278.573 141.35 280.773 138.85C282.973 136.45 284.073 133.15 284.073 129.05C284.073 125 282.973 121.75 280.823 119.25C278.673 116.85 275.823 115.6 272.223 115.6C268.623 115.6 265.723 116.85 263.623 119.25C261.423 121.7 260.323 125 260.323 129.1C260.323 133.2 261.373 136.45 263.573 138.9C265.723 141.4 268.573 142.6 272.173 142.6ZM265.023 137.7C263.223 135.6 262.323 132.75 262.323 129.1C262.323 125.5 263.173 122.6 264.973 120.5C266.773 118.4 269.173 117.3 272.173 117.3C275.173 117.3 277.573 118.35 279.373 120.45C281.173 122.55 282.073 125.45 282.073 129.05C282.073 132.7 281.173 135.6 279.373 137.7C277.573 139.85 275.173 140.9 272.173 140.9C269.123 140.9 266.723 139.85 265.023 137.7ZM309.667 130.25C309.667 133.75 308.817 136.35 307.217 138.15C305.617 139.95 303.417 140.85 300.667 140.85C298.267 140.85 296.417 140.2 295.217 138.8C293.967 137.45 293.367 135.5 293.367 132.95V116.2H291.367V133.3C291.367 136.25 292.117 138.55 293.667 140.15C295.217 141.8 297.417 142.6 300.317 142.6C305.017 142.6 308.167 140.5 309.767 136.2V142H311.667V116.2H309.667V130.25ZM332.214 115.6C329.814 115.6 327.764 116.25 326.064 117.55C324.364 118.85 323.164 120.6 322.464 122.7V116.2H320.664V152.2H322.664V136.05C323.464 138.05 324.664 139.6 326.364 140.8C328.014 142 329.914 142.6 332.114 142.6C335.514 142.6 338.214 141.35 340.214 138.75C342.164 136.2 343.164 132.85 343.164 128.75C343.164 124.8 342.164 121.6 340.214 119.15C338.214 116.8 335.514 115.6 332.214 115.6ZM331.914 140.8C329.164 140.8 326.914 139.75 325.164 137.55C323.414 135.45 322.564 132.6 322.564 129C322.564 125.4 323.414 122.6 325.114 120.5C326.814 118.45 329.114 117.4 332.014 117.4C334.814 117.4 337.064 118.4 338.714 120.4C340.314 122.4 341.164 125.2 341.164 128.75C341.164 132.4 340.314 135.3 338.714 137.45C337.064 139.7 334.814 140.8 331.914 140.8ZM380.701 142.7C385.701 142.7 389.701 141 392.701 137.5C395.701 134.05 397.201 129.6 397.201 124.2C397.201 118.8 395.701 114.4 392.701 110.9C389.701 107.5 385.701 105.8 380.701 105.8C375.701 105.8 371.751 107.5 368.751 110.9C365.751 114.4 364.251 118.8 364.251 124.2C364.251 129.6 365.751 134.05 368.751 137.5C371.751 141 375.701 142.7 380.701 142.7ZM380.701 140.85C376.301 140.85 372.851 139.3 370.251 136.2C367.601 133.2 366.301 129.2 366.301 124.2C366.301 119.2 367.601 115.2 370.251 112.15C372.851 109.15 376.301 107.6 380.701 107.6C385.101 107.6 388.601 109.15 391.251 112.15C393.851 115.25 395.151 119.25 395.151 124.2C395.151 129.2 393.851 133.25 391.251 136.25C388.551 139.35 385.051 140.85 380.701 140.85ZM416.329 108.15V106.4H413.729C411.429 106.4 409.729 107 408.629 108.1C407.529 109.2 407.029 111 407.029 113.45V116.3L402.329 116.2V117.85L407.029 117.75V142H409.029V117.75L416.329 117.85V116.2L409.029 116.3V113.25C409.029 111.45 409.379 110.15 410.179 109.35C410.929 108.55 412.129 108.15 413.779 108.15H416.329ZM451.486 142.7C455.486 142.7 458.786 141.5 461.486 139.05C464.136 136.65 465.636 133.55 466.036 129.75H464.036C463.786 133.05 462.486 135.75 460.136 137.8C457.786 139.85 454.936 140.85 451.536 140.85C447.286 140.85 443.936 139.35 441.486 136.25C438.986 133.2 437.786 129.15 437.786 124.15C437.786 119.1 439.036 115.05 441.536 112.05C443.986 109.1 447.286 107.6 451.486 107.6C454.686 107.6 457.436 108.5 459.736 110.25C461.936 112 463.336 114.3 463.836 117.2H465.886C465.436 113.9 463.886 111.2 461.186 109C458.486 106.9 455.236 105.8 451.436 105.8C446.636 105.8 442.836 107.5 440.036 110.8C437.136 114.2 435.736 118.65 435.736 124.15C435.736 129.65 437.136 134.1 439.986 137.5C442.786 141 446.586 142.7 451.486 142.7ZM483.452 142.6C486.952 142.6 489.852 141.35 492.052 138.85C494.252 136.45 495.352 133.15 495.352 129.05C495.352 125 494.252 121.75 492.102 119.25C489.952 116.85 487.102 115.6 483.502 115.6C479.902 115.6 477.002 116.85 474.902 119.25C472.702 121.7 471.602 125 471.602 129.1C471.602 133.2 472.652 136.45 474.852 138.9C477.002 141.4 479.852 142.6 483.452 142.6ZM476.302 137.7C474.502 135.6 473.602 132.75 473.602 129.1C473.602 125.5 474.452 122.6 476.252 120.5C478.052 118.4 480.452 117.3 483.452 117.3C486.452 117.3 488.852 118.35 490.652 120.45C492.452 122.55 493.352 125.45 493.352 129.05C493.352 132.7 492.452 135.6 490.652 137.7C488.852 139.85 486.452 140.9 483.452 140.9C480.402 140.9 478.002 139.85 476.302 137.7ZM528.746 115.6C524.496 115.6 521.696 117.75 520.396 121.95C519.996 119.9 519.096 118.35 517.796 117.25C516.496 116.15 514.796 115.6 512.746 115.6C508.746 115.6 506.046 117.65 504.546 121.7L504.496 121.65L504.546 116.2H502.646V142H504.646V127.65C504.646 124.35 505.346 121.85 506.746 120.05C508.146 118.25 509.946 117.35 512.146 117.35C516.446 117.35 518.646 119.8 518.646 124.65V142H520.646V127.55C520.646 124.25 521.346 121.75 522.746 120C524.146 118.25 525.946 117.35 528.146 117.35C532.446 117.35 534.646 119.8 534.646 124.65V142H536.646V124.65C536.646 121.7 535.946 119.45 534.596 117.9C533.196 116.4 531.246 115.6 528.746 115.6ZM557.165 115.6C554.765 115.6 552.715 116.25 551.015 117.55C549.315 118.85 548.115 120.6 547.415 122.7V116.2H545.615V152.2H547.615V136.05C548.415 138.05 549.615 139.6 551.315 140.8C552.965 142 554.865 142.6 557.065 142.6C560.465 142.6 563.165 141.35 565.165 138.75C567.115 136.2 568.115 132.85 568.115 128.75C568.115 124.8 567.115 121.6 565.165 119.15C563.165 116.8 560.465 115.6 557.165 115.6ZM556.865 140.8C554.115 140.8 551.865 139.75 550.115 137.55C548.365 135.45 547.515 132.6 547.515 129C547.515 125.4 548.365 122.6 550.065 120.5C551.765 118.45 554.065 117.4 556.965 117.4C559.765 117.4 562.015 118.4 563.665 120.4C565.265 122.4 566.115 125.2 566.115 128.75C566.115 132.4 565.265 135.3 563.665 137.45C562.015 139.7 559.765 140.8 556.865 140.8ZM598.25 140.4C596.85 140.4 595.85 140.1 595.35 139.45C594.8 138.8 594.55 137.65 594.55 136.05V122.85C594.55 120.55 593.7 118.8 592.1 117.5C590.45 116.2 588.1 115.55 585 115.55C578.75 115.55 575.4 118.15 574.95 123.3H576.95C577.2 121.2 577.95 119.7 579.15 118.7C580.35 117.75 582.25 117.25 584.85 117.25C587.4 117.25 589.3 117.75 590.6 118.7C591.9 119.65 592.55 121 592.55 122.7V123.05C592.55 124.25 592.25 125.15 591.65 125.75C591.05 126.35 590 126.75 588.45 126.95L582 127.85C576.55 128.55 573.85 131.05 573.85 135.3C573.85 137.55 574.6 139.35 576.1 140.65C577.6 141.95 579.75 142.6 582.55 142.6C585.05 142.6 587.15 142.1 588.95 141C590.7 139.9 591.95 138.35 592.75 136.3L592.8 136.45C592.8 138.45 593.15 139.85 593.95 140.7C594.75 141.6 596.05 142 597.85 142H599V140.4H598.25ZM582.85 141C580.6 141 578.85 140.5 577.65 139.45C576.4 138.4 575.8 137 575.8 135.25C575.8 132.05 577.95 130.1 582.3 129.45L589.1 128.45C590.75 128.2 591.9 127.75 592.55 127.05V132.8C592.15 135.4 591.1 137.45 589.4 138.85C587.7 140.3 585.5 141 582.85 141ZM615.559 115.6C610.809 115.6 607.659 117.75 606.109 122V116.2H604.209V142H606.209V127.95C606.209 124.5 607.009 121.85 608.609 120.05C610.209 118.25 612.409 117.35 615.209 117.35C617.609 117.35 619.409 118.05 620.659 119.4C621.859 120.8 622.509 122.75 622.509 125.25V142H624.509V124.9C624.509 122 623.709 119.7 622.159 118.05C620.559 116.45 618.359 115.6 615.559 115.6ZM635.706 109.9V106.4H633.306V109.9H635.706ZM635.506 142V116.2H633.506V142H635.506ZM665.692 128C665.692 124.3 664.642 121.3 662.642 119C660.542 116.75 657.792 115.6 654.342 115.6C650.742 115.6 647.942 116.8 645.942 119.2C643.842 121.7 642.842 124.95 642.842 128.95C642.842 133.15 643.892 136.45 645.992 138.85C648.042 141.35 650.892 142.6 654.542 142.6C657.242 142.6 659.542 141.9 661.442 140.45C663.292 139 664.542 137.1 665.242 134.8L663.442 134.5C662.792 136.45 661.742 138 660.242 139.15C658.742 140.35 656.892 140.9 654.592 140.9C651.542 140.9 649.142 139.9 647.442 137.8C645.692 135.7 644.842 132.85 644.842 129.25V129.1H665.692V128ZM654.392 117.3C657.192 117.3 659.442 118.25 661.092 120.05C662.742 121.9 663.642 124.4 663.842 127.55H644.892C645.042 124.35 645.992 121.85 647.692 120.05C649.392 118.25 651.592 117.3 654.392 117.3ZM681.808 142.6C684.908 142.6 687.358 141.95 689.158 140.6C690.958 139.3 691.858 137.45 691.858 135.05C691.858 131.35 689.358 129.05 684.408 128.15L680.158 127.45C677.958 127.05 676.408 126.5 675.408 125.75C674.408 125.05 673.958 124 673.958 122.6C673.958 121 674.608 119.7 675.908 118.8C677.208 117.9 679.008 117.4 681.258 117.4C683.608 117.4 685.458 117.95 686.858 118.95C688.258 120 689.008 121.45 689.208 123.35H691.208C691.008 120.95 690.008 119.1 688.258 117.75C686.508 116.45 684.208 115.75 681.308 115.75C678.458 115.75 676.208 116.4 674.558 117.6C672.908 118.8 672.108 120.5 672.108 122.7C672.108 124.6 672.708 126.05 673.958 127.05C675.208 128.05 677.108 128.8 679.708 129.2L684.058 129.95C687.958 130.55 689.908 132.3 689.908 135.2C689.908 137 689.158 138.45 687.758 139.45C686.358 140.45 684.358 140.95 681.858 140.95C676.458 140.95 673.608 138.7 673.308 134.15H671.408C671.558 136.9 672.508 139 674.308 140.45C676.108 141.9 678.608 142.6 681.808 142.6Z" fill="#FFFDEE"/>
<line x1="429.161" y1="24.7167" x2="405.867" y2="85.3995" stroke="#FFFDEE" stroke-width="4"/>
</svg>
