<svg width="57" height="57" viewBox="0 0 57 57" fill="none" xmlns="http://www.w3.org/2000/svg">
<g clip-path="url(#clip0_58_89)">
<path d="M56.8629 56.9354V37.9819L37.7805 56.9295L45.3429 56.9215L51.6077 50.4713L51.6117 56.9354H56.8629Z" fill="#222222"/>
<path d="M56.7983 0.00415039H37.8448L56.7923 19.0847L56.7843 11.5242L50.3342 5.25742L56.7983 5.25339V0.00415039Z" fill="#222222"/>
<path d="M0.00408936 0.0686035V19.0202L19.0867 0.0746487L11.5242 0.0806935L5.25935 6.53087L5.25532 0.0686035H0.00408936Z" fill="#222222"/>
<path d="M0 56.9315H18.9536L0.00604519 37.8489L0.0141054 45.4115L6.46432 51.6763L0 51.6803V56.9315Z" fill="#222222"/>
<path d="M20.9807 39.9566L8.21534 27.306L32.6398 2.94803L29.6978 0.00806195L26.0385 0L0.00195312 26.0527V29.9941L20.3298 50.3242L41.0548 29.3251L36.1883 24.4588L20.9807 39.9566Z" fill="#222222"/>
<path d="M36.5873 6.91772L15.8867 27.7433L20.7067 32.5633L36.0251 17.267L48.7521 29.9055L24.2733 54.2636L26.9775 56.9697L31.0298 57L56.8609 31.169V27.1912L36.5873 6.91772Z" fill="#222222"/>
</g>
<defs>
<clipPath id="clip0_58_89">
<rect width="57" height="57" fill="white"/>
</clipPath>
</defs>
</svg>
