<svg width="101" height="25" viewBox="0 0 101 25" fill="none" xmlns="http://www.w3.org/2000/svg">
<path d="M8.632 24.64C11.352 24.64 13.464 24.16 15 23.136C16.504 22.144 17.272 20.672 17.272 18.752C17.272 15.776 15.032 14.048 10.616 13.568L8.152 13.312C6.872 13.184 6.264 12.704 6.264 11.872C6.264 10.976 6.968 10.496 8.376 10.496C9.848 10.496 10.68 11.04 10.872 12.128H16.76C16.216 8.672 13.496 6.912 8.6 6.912C6.008 6.912 3.992 7.392 2.584 8.352C1.176 9.312 0.472 10.688 0.472 12.448C0.472 15.392 2.616 17.024 6.936 17.408L9.432 17.632C10.648 17.76 11.256 18.272 11.256 19.104C11.256 19.616 11.032 20.032 10.616 20.32C10.2 20.64 9.624 20.768 8.888 20.768C7.288 20.768 6.392 20.128 6.2 18.816H0.12C0.312 20.672 1.144 22.08 2.616 23.104C4.088 24.128 6.072 24.64 8.632 24.64ZM26.4703 5.408V1.216H20.0063V5.408H26.4703ZM26.4703 24V7.488H20.0063V24H26.4703ZM47.4865 24C46.8465 22.944 46.5585 21.568 46.5585 19.84V12.864C46.5585 10.816 45.8545 9.312 44.5105 8.352C43.1345 7.392 41.0545 6.912 38.2705 6.912C35.5185 6.912 33.5025 7.392 32.1905 8.32C30.8465 9.248 30.0785 10.688 29.8545 12.672L35.9985 12.896C36.0305 12.256 36.2225 11.808 36.5425 11.52C36.8625 11.264 37.3425 11.104 38.0145 11.104C39.3905 11.104 40.0945 11.616 40.0945 12.576V13.76L34.3025 14.656C32.4785 14.976 31.1665 15.52 30.3345 16.32C29.5025 17.152 29.1185 18.208 29.1185 19.552C29.1185 21.152 29.6625 22.4 30.7505 23.296C31.8385 24.192 33.3105 24.64 35.1665 24.64C37.5985 24.64 39.3905 23.776 40.4785 22.048C40.5425 22.688 40.7665 23.328 41.0865 24H47.4865ZM37.4065 20.576C36.0945 20.576 35.4545 20.096 35.4545 19.136C35.4545 18.304 36.1265 17.76 37.5025 17.536L40.3185 17.024V17.76C40.3185 18.72 40.0305 19.424 39.5185 19.872C38.9745 20.352 38.2705 20.576 37.4065 20.576ZM60.9778 6.912C58.8978 6.912 57.3618 7.872 56.4018 9.792L56.2098 7.488H50.1938V24H56.6578V16.64C56.6578 13.952 58.1618 12.608 61.2018 12.608C61.6498 12.608 62.1618 12.64 62.6738 12.704V7.136C62.0978 7.008 61.5218 6.912 60.9778 6.912ZM81.2288 12.608C81.2288 4.864 78.7008 0.959999 73.7088 0.959999C68.6848 0.959999 66.1888 4.864 66.1888 12.608C66.1888 20.384 68.6848 24.256 73.7088 24.256C78.7008 24.256 81.2288 20.384 81.2288 12.608ZM69.0368 20.544C68.0128 18.848 67.5008 16.192 67.5008 12.608C67.5008 9.024 68.0128 6.4 69.0368 4.672C70.0288 2.976 71.5968 2.112 73.7088 2.112C75.8208 2.112 77.3888 2.976 78.4128 4.672C79.4048 6.4 79.9167 9.024 79.9167 12.608C79.9167 16.192 79.4048 18.848 78.4128 20.544C77.3888 22.272 75.8208 23.104 73.7088 23.104C71.5968 23.104 70.0288 22.272 69.0368 20.544ZM93.5055 15.264L99.6495 7.488H98.0815L92.8015 14.4L87.4895 7.488H85.9215L92.1295 15.264L85.1535 24H86.7215L92.8015 16.128L98.8495 24H100.45L93.5055 15.264Z" fill="#222222"/>
</svg>
