<svg width="79" height="22" viewBox="0 0 79 22" fill="none" xmlns="http://www.w3.org/2000/svg">
<path d="M12.0859 6.78125C13.2526 7.52865 13.9225 8.8138 14.0957 10.6367H10.1992C10.1445 10.1354 10.0033 9.73893 9.77539 9.44727C9.34701 8.91862 8.61784 8.6543 7.58789 8.6543C6.74023 8.6543 6.13411 8.78646 5.76953 9.05078C5.41406 9.3151 5.23633 9.625 5.23633 9.98047C5.23633 10.4271 5.42773 10.7507 5.81055 10.9512C6.19336 11.1608 7.54688 11.5208 9.87109 12.0312C11.4206 12.3958 12.5827 12.9473 13.3574 13.6855C14.123 14.4329 14.5059 15.3672 14.5059 16.4883C14.5059 17.9648 13.9544 19.1725 12.8516 20.1113C11.7578 21.041 10.0625 21.5059 7.76562 21.5059C5.42318 21.5059 3.69141 21.0137 2.57031 20.0293C1.45833 19.0358 0.902344 17.7734 0.902344 16.2422H4.85352C4.93555 16.9349 5.11328 17.4271 5.38672 17.7188C5.86979 18.2383 6.76302 18.498 8.06641 18.498C8.83203 18.498 9.43815 18.3841 9.88477 18.1562C10.3405 17.9284 10.5684 17.5866 10.5684 17.1309C10.5684 16.6934 10.3861 16.3607 10.0215 16.1328C9.6569 15.9049 8.30339 15.513 5.96094 14.957C4.27474 14.5378 3.08529 14.0137 2.39258 13.3848C1.69987 12.765 1.35352 11.8717 1.35352 10.7051C1.35352 9.32878 1.89128 8.14844 2.9668 7.16406C4.05143 6.17057 5.57357 5.67383 7.5332 5.67383C9.39258 5.67383 10.9102 6.04297 12.0859 6.78125ZM21.4102 6.09766V21H17.459V6.09766H21.4102ZM21.4102 0.724609V4.32031H17.459V0.724609H21.4102ZM25.7578 7.71094C26.7878 6.39844 28.556 5.74219 31.0625 5.74219C32.694 5.74219 34.1432 6.06576 35.4102 6.71289C36.6771 7.36003 37.3105 8.58138 37.3105 10.377V17.2129C37.3105 17.6868 37.3197 18.2611 37.3379 18.9355C37.3652 19.446 37.4427 19.7923 37.5703 19.9746C37.6979 20.1569 37.8893 20.3073 38.1445 20.4258V21H33.9062C33.7878 20.6992 33.7057 20.4167 33.6602 20.1523C33.6146 19.888 33.5781 19.5872 33.5508 19.25C33.013 19.8333 32.3932 20.3301 31.6914 20.7402C30.8529 21.2233 29.9049 21.4648 28.8477 21.4648C27.4987 21.4648 26.3822 21.082 25.498 20.3164C24.623 19.5417 24.1855 18.4479 24.1855 17.0352C24.1855 15.2031 24.8919 13.877 26.3047 13.0566C27.0794 12.61 28.2188 12.291 29.7227 12.0996L31.0488 11.9355C31.7689 11.8444 32.2839 11.7305 32.5938 11.5938C33.1497 11.3568 33.4277 10.9876 33.4277 10.4863C33.4277 9.87565 33.2135 9.45638 32.7852 9.22852C32.3659 8.99154 31.7461 8.87305 30.9258 8.87305C30.0052 8.87305 29.3535 9.10091 28.9707 9.55664C28.6973 9.89388 28.515 10.3496 28.4238 10.9238H24.6641C24.7461 9.62044 25.1107 8.54948 25.7578 7.71094ZM28.6562 18.1836C29.0208 18.4844 29.4674 18.6348 29.9961 18.6348C30.8346 18.6348 31.6048 18.3887 32.3066 17.8965C33.0176 17.4043 33.3867 16.5065 33.4141 15.2031V13.7539C33.168 13.9089 32.9173 14.0365 32.6621 14.1367C32.416 14.2279 32.0742 14.3145 31.6367 14.3965L30.7617 14.5605C29.9414 14.7064 29.3535 14.8841 28.998 15.0938C28.3965 15.4492 28.0957 16.0007 28.0957 16.748C28.0957 17.4134 28.2826 17.8919 28.6562 18.1836ZM48.2754 9.69336C46.7077 9.69336 45.6549 10.2038 45.1172 11.2246C44.8164 11.7988 44.666 12.6829 44.666 13.877V21H40.7422V6.09766H44.4609V8.69531C45.0625 7.70182 45.5866 7.02279 46.0332 6.6582C46.7624 6.04753 47.7103 5.74219 48.877 5.74219C48.9499 5.74219 49.0091 5.74674 49.0547 5.75586C49.1094 5.75586 49.2233 5.76042 49.3965 5.76953V9.76172C49.1504 9.73438 48.9316 9.71615 48.7402 9.70703C48.5488 9.69792 48.3939 9.69336 48.2754 9.69336ZM62.531 11.284C62.531 10.22 62.4657 9.184 62.335 8.176C62.223 7.14933 61.9897 6.23467 61.635 5.432C61.2803 4.62933 60.7763 3.98533 60.123 3.5C59.4883 3.01467 58.6483 2.772 57.603 2.772C56.6137 2.772 55.8017 3.024 55.167 3.528C54.551 4.01333 54.0657 4.66667 53.711 5.488C53.3563 6.30933 53.1043 7.24267 52.955 8.288C52.8243 9.33333 52.759 10.3973 52.759 11.48C52.759 12.7493 52.8337 13.9067 52.983 14.952C53.151 15.9787 53.4217 16.856 53.795 17.584C54.1683 18.312 54.663 18.8813 55.279 19.292C55.9137 19.684 56.707 19.88 57.659 19.88C58.723 19.88 59.5723 19.6187 60.207 19.096C60.8603 18.5733 61.355 17.9013 61.691 17.08C62.027 16.2587 62.251 15.3347 62.363 14.308C62.475 13.2813 62.531 12.2733 62.531 11.284ZM57.659 1.26C58.6297 1.26 59.4697 1.40933 60.179 1.708C60.8883 1.988 61.4857 2.38 61.971 2.884C62.475 3.388 62.8763 3.976 63.175 4.648C63.4923 5.32 63.735 6.03867 63.903 6.804C64.071 7.55067 64.183 8.32533 64.239 9.128C64.295 9.93067 64.323 10.7147 64.323 11.48C64.323 12.7867 64.2297 14.0373 64.043 15.232C63.8563 16.4267 63.511 17.4813 63.007 18.396C62.5217 19.3107 61.8497 20.0387 60.991 20.58C60.1323 21.1213 59.0217 21.392 57.659 21.392C56.2963 21.392 55.1763 21.1213 54.299 20.58C53.4403 20.0387 52.759 19.3107 52.255 18.396C51.7697 17.4627 51.4337 16.3893 51.247 15.176C51.0603 13.944 50.967 12.6467 50.967 11.284C50.967 10.0333 51.051 8.81067 51.219 7.616C51.387 6.42133 51.7043 5.35733 52.171 4.424C52.6563 3.472 53.3377 2.70667 54.215 2.128C55.0923 1.54933 56.2403 1.26 57.659 1.26ZM72.4896 14.728L67.9816 21H65.9376L71.5096 13.496L66.3856 6.496H68.4576L72.4616 12.264L76.5776 6.496H78.7056L73.4696 13.496L78.9016 21H76.8856L72.4896 14.728Z" fill="#222222"/>
</svg>
